<svg width="756" height="124" viewBox="0 0 756 124" fill="none" xmlns="http://www.w3.org/2000/svg">
<path d="M43.2 101.944C37.728 101.944 32.608 101.016 27.84 99.16C23.104 97.336 18.928 94.744 15.312 91.384C11.728 88.056 8.912 84.12 6.864 79.576C4.848 75 3.84 69.992 3.84 64.552C3.84 59.144 4.848 54.056 6.864 49.288C8.912 44.52 11.728 40.344 15.312 36.76C18.928 33.144 23.12 30.328 27.888 28.312C32.656 26.264 37.76 25.24 43.2 25.24C48.64 25.24 53.744 26.264 58.512 28.312C63.28 30.36 67.456 33.192 71.04 36.808C74.624 40.424 77.424 44.616 79.44 49.384C81.488 54.12 82.512 59.176 82.512 64.552C82.512 67.464 82.144 70.344 81.408 73.192C80.704 76.008 79.648 78.568 78.24 80.872C76.864 83.144 75.168 84.968 73.152 86.344C71.136 87.688 68.832 88.36 66.24 88.36C64.32 88.36 62.384 87.944 60.432 87.112C58.512 86.248 56.864 85.096 55.488 83.656C54.112 82.184 53.28 80.568 52.992 78.808C51.744 80.28 50.176 81.464 48.288 82.36C46.432 83.224 44.32 83.656 41.952 83.656C38.464 83.656 35.264 82.808 32.352 81.112C29.472 79.384 27.168 77.08 25.44 74.2C23.744 71.288 22.896 68.072 22.896 64.552C22.896 61.032 23.744 57.832 25.44 54.952C27.168 52.072 29.472 49.784 32.352 48.088C35.264 46.36 38.464 45.496 41.952 45.496C44.192 45.496 46.368 45.896 48.48 46.696C50.624 47.496 52.288 48.6 53.472 50.008V46.456L61.104 47.944V73.96C61.104 75.272 61.536 76.344 62.4 77.176C63.296 77.976 64.368 78.376 65.616 78.376C67.248 78.376 68.56 77.624 69.552 76.12C70.576 74.584 71.328 72.744 71.808 70.6C72.288 68.424 72.528 66.408 72.528 64.552C72.528 60.488 71.76 56.68 70.224 53.128C68.688 49.576 66.56 46.456 63.84 43.768C61.152 41.08 58.032 38.984 54.48 37.48C50.96 35.976 47.2 35.224 43.2 35.224C39.168 35.224 35.376 35.992 31.824 37.528C28.272 39.032 25.136 41.128 22.416 43.816C19.728 46.504 17.616 49.624 16.08 53.176C14.576 56.696 13.824 60.488 13.824 64.552C13.824 68.616 14.576 72.328 16.08 75.688C17.584 79.048 19.68 81.944 22.368 84.376C25.088 86.776 28.208 88.648 31.728 89.992C35.28 91.336 39.104 92.008 43.2 92.008V101.944ZM42.72 76.072C44.864 76.072 46.736 75.512 48.336 74.392C49.936 73.272 51.184 71.816 52.08 70.024C52.976 68.2 53.424 66.28 53.424 64.264C53.424 62.248 52.992 60.408 52.128 58.744C51.264 57.048 50.032 55.688 48.432 54.664C46.832 53.608 44.928 53.08 42.72 53.08C40.608 53.08 38.672 53.592 36.912 54.616C35.184 55.64 33.792 57.032 32.736 58.792C31.712 60.52 31.2 62.44 31.2 64.552C31.2 66.696 31.728 68.648 32.784 70.408C33.84 72.136 35.232 73.512 36.96 74.536C38.72 75.56 40.64 76.072 42.72 76.072ZM117.064 41.656C121.736 41.656 125.976 42.792 129.784 45.064C133.624 47.336 136.68 50.392 138.952 54.232C141.224 58.04 142.36 62.28 142.36 66.952C142.36 70.44 141.704 73.72 140.392 76.792C139.08 79.832 137.256 82.52 134.92 84.856C132.616 87.16 129.928 88.968 126.856 90.28C123.816 91.592 120.552 92.248 117.064 92.248C113.704 92.248 110.76 91.48 108.232 89.944C105.736 88.376 103.688 86.376 102.088 83.944V91H92.1038V19H102.088V49.96C103.688 47.496 105.736 45.496 108.232 43.96C110.76 42.424 113.704 41.656 117.064 41.656ZM116.968 82.552C119.752 82.552 122.296 81.848 124.6 80.44C126.904 79.032 128.728 77.144 130.072 74.776C131.448 72.408 132.136 69.8 132.136 66.952C132.136 64.04 131.448 61.4 130.072 59.032C128.696 56.664 126.856 54.792 124.552 53.416C122.248 52.008 119.72 51.304 116.968 51.304C114.184 51.304 111.736 52.008 109.624 53.416C107.512 54.824 105.864 56.712 104.68 59.08C103.496 61.448 102.904 64.072 102.904 66.952C102.904 69.832 103.496 72.456 104.68 74.824C105.864 77.192 107.512 79.08 109.624 80.488C111.736 81.864 114.184 82.552 116.968 82.552ZM171.161 92.248C166.745 92.248 162.713 91.112 159.065 88.84C155.449 86.568 152.553 83.528 150.377 79.72C148.233 75.88 147.161 71.64 147.161 67C147.161 63.48 147.785 60.2 149.033 57.16C150.281 54.088 151.993 51.4 154.169 49.096C156.377 46.76 158.937 44.936 161.849 43.624C164.761 42.312 167.865 41.656 171.161 41.656C174.841 41.656 178.217 42.424 181.289 43.96C184.361 45.464 186.985 47.56 189.161 50.248C191.337 52.904 192.937 55.976 193.961 59.464C194.985 62.92 195.289 66.6 194.873 70.504H157.865C158.281 72.712 159.081 74.712 160.265 76.504C161.481 78.264 163.017 79.656 164.873 80.68C166.761 81.704 168.857 82.232 171.161 82.264C173.593 82.264 175.801 81.656 177.785 80.44C179.801 79.224 181.449 77.544 182.729 75.4L192.857 77.752C190.937 82.008 188.041 85.496 184.169 88.216C180.297 90.904 175.961 92.248 171.161 92.248ZM157.529 62.872H184.793C184.473 60.568 183.657 58.488 182.345 56.632C181.065 54.744 179.449 53.256 177.497 52.168C175.577 51.048 173.465 50.488 171.161 50.488C168.889 50.488 166.777 51.032 164.825 52.12C162.905 53.208 161.305 54.696 160.025 56.584C158.777 58.44 157.945 60.536 157.529 62.872ZM240.121 19H250.105V91H240.121V83.944C238.553 86.44 236.505 88.456 233.977 89.992C231.449 91.496 228.489 92.248 225.097 92.248C221.609 92.248 218.345 91.592 215.305 90.28C212.265 88.968 209.577 87.16 207.241 84.856C204.937 82.52 203.129 79.832 201.817 76.792C200.505 73.752 199.849 70.488 199.849 67C199.849 63.512 200.505 60.248 201.817 57.208C203.129 54.136 204.937 51.448 207.241 49.144C209.577 46.808 212.265 44.984 215.305 43.672C218.345 42.36 221.609 41.704 225.097 41.704C228.489 41.704 231.449 42.472 233.977 44.008C236.505 45.512 238.553 47.496 240.121 49.96V19ZM225.193 82.6C228.009 82.6 230.473 81.912 232.585 80.536C234.697 79.128 236.329 77.24 237.481 74.872C238.665 72.504 239.257 69.88 239.257 67C239.257 64.088 238.665 61.448 237.481 59.08C236.297 56.712 234.649 54.84 232.537 53.464C230.457 52.056 228.009 51.352 225.193 51.352C222.409 51.352 219.865 52.056 217.561 53.464C215.289 54.872 213.465 56.76 212.089 59.128C210.745 61.496 210.073 64.12 210.073 67C210.073 69.912 210.761 72.552 212.137 74.92C213.545 77.256 215.385 79.128 217.657 80.536C219.961 81.912 222.473 82.6 225.193 82.6ZM261.604 91V43H271.588V48.088C273.252 46.104 275.3 44.536 277.732 43.384C280.164 42.232 282.788 41.656 285.604 41.656C287.396 41.656 289.172 41.896 290.932 42.376L286.948 52.456C285.7 51.976 284.452 51.736 283.204 51.736C281.092 51.736 279.156 52.264 277.396 53.32C275.636 54.344 274.228 55.736 273.172 57.496C272.116 59.256 271.588 61.208 271.588 63.352V91H261.604ZM315.349 92.248C310.933 92.248 306.901 91.112 303.253 88.84C299.637 86.568 296.741 83.528 294.565 79.72C292.421 75.88 291.349 71.64 291.349 67C291.349 63.48 291.973 60.2 293.221 57.16C294.469 54.088 296.181 51.4 298.357 49.096C300.565 46.76 303.125 44.936 306.037 43.624C308.949 42.312 312.053 41.656 315.349 41.656C319.765 41.656 323.781 42.792 327.397 45.064C331.045 47.336 333.941 50.392 336.085 54.232C338.261 58.072 339.349 62.328 339.349 67C339.349 70.488 338.725 73.752 337.477 76.792C336.229 79.832 334.501 82.52 332.293 84.856C330.117 87.16 327.573 88.968 324.661 90.28C321.781 91.592 318.677 92.248 315.349 92.248ZM315.349 82.264C318.005 82.264 320.389 81.56 322.501 80.152C324.613 78.744 326.277 76.888 327.493 74.584C328.741 72.248 329.365 69.72 329.365 67C329.365 64.216 328.725 61.656 327.445 59.32C326.197 56.984 324.517 55.128 322.405 53.752C320.293 52.344 317.941 51.64 315.349 51.64C312.725 51.64 310.341 52.344 308.197 53.752C306.085 55.16 304.405 57.032 303.157 59.368C301.941 61.704 301.333 64.248 301.333 67C301.333 69.848 301.973 72.424 303.253 74.728C304.533 77.032 306.229 78.872 308.341 80.248C310.485 81.592 312.821 82.264 315.349 82.264ZM378.354 77.368L387.282 82.216C385.106 85.256 382.338 87.688 378.978 89.512C375.65 91.336 372.034 92.248 368.13 92.248C363.714 92.248 359.682 91.112 356.034 88.84C352.418 86.568 349.522 83.528 347.346 79.72C345.202 75.88 344.13 71.64 344.13 67C344.13 63.48 344.754 60.2 346.002 57.16C347.25 54.088 348.962 51.4 351.138 49.096C353.346 46.76 355.906 44.936 358.818 43.624C361.73 42.312 364.834 41.656 368.13 41.656C372.034 41.656 375.65 42.568 378.978 44.392C382.338 46.216 385.106 48.664 387.282 51.736L378.354 56.584C377.01 54.984 375.442 53.768 373.65 52.936C371.858 52.072 370.018 51.64 368.13 51.64C365.506 51.64 363.122 52.36 360.978 53.8C358.866 55.208 357.186 57.08 355.938 59.416C354.722 61.72 354.114 64.248 354.114 67C354.114 69.72 354.738 72.248 355.986 74.584C357.234 76.888 358.914 78.744 361.026 80.152C363.17 81.56 365.538 82.264 368.13 82.264C370.114 82.264 372.002 81.816 373.794 80.92C375.586 80.024 377.106 78.84 378.354 77.368ZM435.769 91H424.249L412.441 70.648L404.713 79.864V91H394.729V19H404.713V64.36L422.569 43H435.625L419.257 62.536L435.769 91ZM557.974 92.248C553.558 92.248 549.526 91.112 545.878 88.84C542.262 86.568 539.366 83.528 537.19 79.72C535.046 75.88 533.974 71.64 533.974 67C533.974 63.48 534.598 60.2 535.846 57.16C537.094 54.088 538.806 51.4 540.982 49.096C543.19 46.76 545.75 44.936 548.662 43.624C551.574 42.312 554.678 41.656 557.974 41.656C562.39 41.656 566.406 42.792 570.022 45.064C573.67 47.336 576.566 50.392 578.71 54.232C580.886 58.072 581.974 62.328 581.974 67C581.974 70.488 581.35 73.752 580.102 76.792C578.854 79.832 577.126 82.52 574.918 84.856C572.742 87.16 570.198 88.968 567.286 90.28C564.406 91.592 561.302 92.248 557.974 92.248ZM557.974 82.264C560.63 82.264 563.014 81.56 565.126 80.152C567.238 78.744 568.902 76.888 570.118 74.584C571.366 72.248 571.99 69.72 571.99 67C571.99 64.216 571.35 61.656 570.07 59.32C568.822 56.984 567.142 55.128 565.03 53.752C562.918 52.344 560.566 51.64 557.974 51.64C555.35 51.64 552.966 52.344 550.822 53.752C548.71 55.16 547.03 57.032 545.782 59.368C544.566 61.704 543.958 64.248 543.958 67C543.958 69.848 544.598 72.424 545.878 74.728C547.158 77.032 548.854 78.872 550.966 80.248C553.11 81.592 555.446 82.264 557.974 82.264ZM589.729 91V43H599.713V48.088C601.377 46.104 603.425 44.536 605.857 43.384C608.289 42.232 610.913 41.656 613.729 41.656C615.521 41.656 617.297 41.896 619.057 42.376L615.073 52.456C613.825 51.976 612.577 51.736 611.329 51.736C609.217 51.736 607.281 52.264 605.521 53.32C603.761 54.344 602.353 55.736 601.297 57.496C600.241 59.256 599.713 61.208 599.713 63.352V91H589.729ZM643.474 92.248C639.058 92.248 635.026 91.112 631.378 88.84C627.762 86.568 624.866 83.528 622.69 79.72C620.546 75.88 619.474 71.64 619.474 67C619.474 63.48 620.098 60.2 621.346 57.16C622.594 54.088 624.306 51.4 626.482 49.096C628.69 46.76 631.25 44.936 634.162 43.624C637.074 42.312 640.178 41.656 643.474 41.656C647.154 41.656 650.53 42.424 653.602 43.96C656.674 45.464 659.298 47.56 661.474 50.248C663.65 52.904 665.25 55.976 666.274 59.464C667.298 62.92 667.602 66.6 667.186 70.504H630.178C630.594 72.712 631.394 74.712 632.578 76.504C633.794 78.264 635.33 79.656 637.186 80.68C639.074 81.704 641.17 82.232 643.474 82.264C645.906 82.264 648.114 81.656 650.098 80.44C652.114 79.224 653.762 77.544 655.042 75.4L665.17 77.752C663.25 82.008 660.354 85.496 656.482 88.216C652.61 90.904 648.274 92.248 643.474 92.248ZM629.842 62.872H657.106C656.786 60.568 655.97 58.488 654.658 56.632C653.378 54.744 651.762 53.256 649.81 52.168C647.89 51.048 645.778 50.488 643.474 50.488C641.202 50.488 639.09 51.032 637.138 52.12C635.218 53.208 633.618 54.696 632.338 56.584C631.09 58.44 630.258 60.536 629.842 62.872Z" fill="white"/>
<path d="M482.989 51.7579V59.0726H438V63.2456V70.6569H443.654V62.3431H473.978V70.6569H438V73.9471H482.989V81.2421L506.494 93L530 81.2421L518.148 73.9471L506.494 79.7518L494.809 73.9471V59.0726L506.494 53.3715L518.148 59.0726L530 51.7579L506.494 40L482.989 51.7579Z" fill="white"/>
<path d="M438 70.6569H473.978V62.3431H443.654V70.6569H438ZM438 70.6569V73.9471H482.989V81.2421L506.494 93L530 81.2421L518.148 73.9471L506.494 79.7518L494.809 73.9471V59.0726L506.494 53.3715L518.148 59.0726L530 51.7579L506.494 40L482.989 51.7579V59.0726H438V63.2456V70.6569Z" stroke="white" stroke-width="2"/>
</svg>
